<svg width="45" height="45" viewBox="0 0 45 45" fill="none" xmlns="http://www.w3.org/2000/svg">
<g id="Group 3915">
<circle id="Ellipse 31" cx="22.5" cy="22.5" r="22.5" transform="matrix(4.37114e-08 -1 -1 -4.37114e-08 45 45)" fill="#F7D05E"/>
<path id="Arrow 4" d="M29.0607 20.9393C29.6464 21.5251 29.6464 22.4749 29.0607 23.0607L19.5147 32.6066C18.9289 33.1924 17.9792 33.1924 17.3934 32.6066C16.8076 32.0208 16.8076 31.0711 17.3934 30.4853L25.8787 22L17.3934 13.5147C16.8076 12.9289 16.8076 11.9792 17.3934 11.3934C17.9792 10.8076 18.9289 10.8076 19.5147 11.3934L29.0607 20.9393ZM27 20.5L28 20.5L28 23.5L27 23.5L27 20.5Z" fill="white"/>
</g>
</svg>
