<svg viewBox="0 0 27 23" fill="none" xmlns="http://www.w3.org/2000/svg">
<path id="Vector" d="M25.38 0H1.62C1.19035 0 0.778296 0.173086 0.474487 0.481182C0.170678 0.789277 0 1.20714 0 1.64286V21.3571C0 21.7929 0.170678 22.2107 0.474487 22.5188C0.778296 22.8269 1.19035 23 1.62 23H25.38C25.8097 23 26.2217 22.8269 26.5255 22.5188C26.8293 22.2107 27 21.7929 27 21.3571V1.64286C27 1.20714 26.8293 0.789277 26.5255 0.481182C26.2217 0.173086 25.8097 0 25.38 0ZM25.92 21.3571C25.92 21.5024 25.8631 21.6417 25.7618 21.7444C25.6606 21.8471 25.5232 21.9048 25.38 21.9048H1.62C1.47678 21.9048 1.33943 21.8471 1.23816 21.7444C1.13689 21.6417 1.08 21.5024 1.08 21.3571V1.64286C1.08 1.49762 1.13689 1.35833 1.23816 1.25563C1.33943 1.15293 1.47678 1.09524 1.62 1.09524H25.38C25.5232 1.09524 25.6606 1.15293 25.7618 1.25563C25.8631 1.35833 25.92 1.49762 25.92 1.64286V21.3571ZM19.44 6.02381C19.44 7.62142 18.8142 9.1536 17.7002 10.2833C16.5862 11.413 15.0754 12.0476 13.5 12.0476C11.9246 12.0476 10.4138 11.413 9.29979 10.2833C8.18582 9.1536 7.56 7.62142 7.56 6.02381C7.56 5.87857 7.61689 5.73928 7.71816 5.63658C7.81943 5.53389 7.95678 5.47619 8.1 5.47619C8.24322 5.47619 8.38057 5.53389 8.48184 5.63658C8.58311 5.73928 8.64 5.87857 8.64 6.02381C8.64 7.33095 9.15203 8.58455 10.0635 9.50884C10.9749 10.4331 12.211 10.9524 13.5 10.9524C14.789 10.9524 16.0251 10.4331 16.9365 9.50884C17.848 8.58455 18.36 7.33095 18.36 6.02381C18.36 5.87857 18.4169 5.73928 18.5182 5.63658C18.6194 5.53389 18.7568 5.47619 18.9 5.47619C19.0432 5.47619 19.1806 5.53389 19.2818 5.63658C19.3831 5.73928 19.44 5.87857 19.44 6.02381Z" fill="white"/>
</svg>
