<svg xmlns="http://www.w3.org/2000/svg" width="21" height="16" viewBox="0 0 21 16" fill="none">
    <path d="M20.58 7.29713L15.7506 4.01253V1.77546C15.7763 1.3271 15.5907 0.888422 15.2345 0.5556C14.8783 0.222777 14.3805 0.0229749 13.8503 0H1.8817C1.35525 0.0274837 0.862813 0.229241 0.511058 0.561563C0.159302 0.893885 -0.0234428 1.33001 0.00241314 1.77546V10.6527C-0.00733102 11.0053 0.10729 11.3523 0.331665 11.6495C0.556041 11.9467 0.880007 12.1807 1.26227 12.3217C1.06892 12.7216 0.993561 13.1554 1.0427 13.5855C1.09185 14.0155 1.26401 14.4291 1.54434 14.7903C1.82467 15.1516 2.20475 15.4498 2.65178 15.6591C3.09882 15.8684 3.59937 15.9827 4.11027 15.9919C4.62116 16.0012 5.12705 15.9052 5.58427 15.7122C6.0415 15.5193 6.43633 15.2351 6.73471 14.8844C7.03309 14.5336 7.22604 14.1267 7.29693 13.6988C7.36782 13.2709 7.3145 12.8348 7.14159 12.4282H13.8188C13.6462 12.8305 13.5907 13.262 13.6571 13.6862C13.7235 14.1104 13.9098 14.5149 14.2003 14.8653C14.4907 15.2158 14.8768 15.5019 15.3258 15.6994C15.7747 15.8969 16.2734 16 16.7795 16C17.2856 16 17.7842 15.8969 18.2332 15.6994C18.6822 15.5019 19.0682 15.2158 19.3587 14.8653C19.6492 14.5149 19.8355 14.1104 19.9019 13.6862C19.9683 13.262 19.9128 12.8305 19.7401 12.4282H19.9501C20.2286 12.4282 20.4956 12.3347 20.6925 12.1682C20.8894 12.0017 21 11.7759 21 11.5405V7.98956C20.9968 7.85475 20.9573 7.72234 20.8845 7.60236C20.8118 7.48239 20.7076 7.378 20.58 7.29713ZM18.9002 8.41567V10.6527H15.7506V6.28512L18.9002 8.41567ZM5.25181 13.3159C5.25181 13.4915 5.19024 13.6631 5.07487 13.8091C4.95951 13.9551 4.79554 14.0689 4.6037 14.1361C4.41186 14.2033 4.20077 14.2209 3.99711 14.1866C3.79345 14.1523 3.60638 14.0678 3.45955 13.9437C3.31273 13.8195 3.21273 13.6613 3.17222 13.4891C3.13171 13.3169 3.15251 13.1384 3.23197 12.9762C3.31143 12.814 3.446 12.6754 3.61865 12.5778C3.7913 12.4803 3.99428 12.4282 4.20193 12.4282C4.48038 12.4282 4.74742 12.5217 4.94431 12.6882C5.1412 12.8547 5.25181 13.0805 5.25181 13.3159ZM17.8504 13.3159C17.8504 13.4915 17.7888 13.6631 17.6734 13.8091C17.5581 13.9551 17.3941 14.0689 17.2023 14.1361C17.0104 14.2033 16.7993 14.2209 16.5957 14.1866C16.392 14.1523 16.2049 14.0678 16.0581 13.9437C15.9113 13.8195 15.8113 13.6613 15.7708 13.4891C15.7303 13.3169 15.7511 13.1384 15.8305 12.9762C15.91 12.814 16.0445 12.6754 16.2172 12.5778C16.3899 12.4803 16.5928 12.4282 16.8005 12.4282C17.0789 12.4282 17.346 12.5217 17.5429 12.6882C17.7397 12.8547 17.8504 13.0805 17.8504 13.3159Z" fill="#33394F"/>
</svg>