<svg width="24" height="24" viewBox="0 0 24 24" fill="none" xmlns="http://www.w3.org/2000/svg">
<g id="Vector">
<path d="M1.47915 22.9282C0.768392 22.2175 0.768393 21.0651 1.47915 20.3544L20.3542 1.47932C21.0649 0.768568 22.2173 0.768567 22.9281 1.47932C23.6388 2.19008 23.6388 3.34244 22.9281 4.05319L4.05302 22.9282C3.34226 23.639 2.1899 23.639 1.47915 22.9282Z" fill="white"/>
<path d="M1.7337 1.71503C2.44446 1.00427 3.59682 1.00427 4.30757 1.71502L23.1826 20.5901C23.8934 21.3008 23.8934 22.4532 23.1826 23.1639C22.4719 23.8747 21.3195 23.8747 20.6087 23.1639L1.7337 4.28889C1.02295 3.57814 1.02295 2.42578 1.7337 1.71503Z" fill="white"/>
</g>
</svg>
