<svg viewBox="0 0 34 30" fill="none" xmlns="http://www.w3.org/2000/svg">
<g id="Group 3474">
<path id="Vector" d="M17 30L16.4 29.4949C3.5 18.8889 0 15.1515 0 9.09091C0 4.0404 4 0 9 0C13.1 0 15.4 2.32323 17 4.14141C18.6 2.32323 20.9 0 25 0C30 0 34 4.0404 34 9.09091C34 15.1515 30.5 18.8889 17.6 29.4949L17 30ZM9 2.0202C5.1 2.0202 2 5.15152 2 9.09091C2 14.2424 5.2 17.6768 17 27.3737C28.8 17.6768 32 14.2424 32 9.09091C32 5.15152 28.9 2.0202 25 2.0202C21.5 2.0202 19.6 4.14141 18.1 5.85859L17 7.17172L15.9 5.85859C14.4 4.14141 12.5 2.0202 9 2.0202Z" fill="#33394F"/>
</g>
</svg>
