<svg  viewBox="0 0 27 23" fill="none" xmlns="http://www.w3.org/2000/svg">
<g id="Group 3474">
<path id="Vector" d="M13.0333 23L12.5733 22.6128C2.68333 14.4815 0 11.6162 0 6.9697C0 3.09764 3.06667 0 6.9 0C10.0433 0 11.8067 1.78115 13.0333 3.17508C14.26 1.78115 16.0233 0 19.1667 0C23 0 26.0667 3.09764 26.0667 6.9697C26.0667 11.6162 23.3833 14.4815 13.4933 22.6128L13.0333 23ZM6.9 1.54882C3.91 1.54882 1.53333 3.94949 1.53333 6.9697C1.53333 10.9192 3.98667 13.5522 13.0333 20.9865C22.08 13.5522 24.5333 10.9192 24.5333 6.9697C24.5333 3.94949 22.1567 1.54882 19.1667 1.54882C16.4833 1.54882 15.0267 3.17508 13.8767 4.49158L13.0333 5.49832L12.19 4.49158C11.04 3.17508 9.58333 1.54882 6.9 1.54882Z" fill="white"/>
</g>
</svg>
