<svg xmlns="http://www.w3.org/2000/svg" width="15" height="15" viewBox="0 0 15 15" fill="none">
    <path d="M11.3223 0.653042C11.5196 0.448736 11.7556 0.285775 12.0166 0.173667C12.2776 0.0615585 12.5583 0.0025489 12.8423 8.07655e-05C13.1263 -0.00238737 13.408 0.0517356 13.6709 0.159292C13.9338 0.266847 14.1726 0.425682 14.3735 0.626528C14.5743 0.827374 14.7332 1.06621 14.8407 1.3291C14.9483 1.59198 15.0024 1.87366 14.9999 2.15769C14.9975 2.44172 14.9384 2.72241 14.8263 2.98339C14.7142 3.24437 14.5513 3.48041 14.347 3.67773L13.4988 4.52589L10.4741 1.5012L11.3223 0.653042ZM8.96177 3.01354L0 11.9753V15H3.02469L11.9875 6.03823L8.9607 3.01354H8.96177Z" fill="#33394F"/>
</svg>
