<svg width="28" height="29" viewBox="0 0 28 29" fill="none" xmlns="http://www.w3.org/2000/svg">
<path id="Vector" d="M10.2702 1.24518e-06C12.2479 -0.000960954 14.1838 0.555743 15.845 1.60316C17.5062 2.65058 18.8221 4.14411 19.6343 5.90414C20.4465 7.66417 20.7206 9.61575 20.4234 11.5242C20.1263 13.4326 19.2706 15.2166 17.9593 16.6616L28 27.7856L26.6065 29L16.5907 17.9246C15.3024 18.9082 13.7919 19.5771 12.1851 19.8756C10.5784 20.1741 8.92175 20.0935 7.35333 19.6405C5.78491 19.1876 4.35007 18.3754 3.16833 17.2717C1.98659 16.1679 1.09216 14.8045 0.559536 13.2951C0.0269184 11.7856 -0.128469 10.1738 0.106318 8.59387C0.341105 7.01394 0.959269 5.51163 1.90932 4.21208C2.85937 2.91254 4.1138 1.85337 5.56813 1.12282C7.02246 0.392266 8.63458 0.0114677 10.2702 0.0121453V1.24518e-06ZM10.2702 18.2161C12.4976 18.2161 14.6337 17.3524 16.2087 15.8152C17.7837 14.2779 18.6685 12.1929 18.6685 10.0188C18.6685 7.8448 17.7837 5.7598 16.2087 4.22252C14.6337 2.68524 12.4976 1.82161 10.2702 1.82161C8.04284 1.82161 5.9067 2.68524 4.33171 4.22252C2.75672 5.7598 1.87189 7.8448 1.87189 10.0188C1.87189 12.1929 2.75672 14.2779 4.33171 15.8152C5.9067 17.3524 8.04284 18.2161 10.2702 18.2161Z" fill="white"/>
</svg>
