<svg width="30" height="31" viewBox="0 0 30 31" fill="none" xmlns="http://www.w3.org/2000/svg">
<path id="Vector" d="M11.0038 1.33105e-06C13.1228 -0.00102723 15.1969 0.59407 16.9768 1.71373C18.7567 2.83338 20.1665 4.42991 21.0368 6.31132C21.907 8.19273 22.2006 10.2789 21.8822 12.3189C21.5639 14.359 20.6471 16.266 19.2422 17.8107L30 29.7018L28.507 31L17.7758 19.1608C16.3954 20.2122 14.7771 20.9273 13.0555 21.2463C11.334 21.5654 9.55902 21.4792 7.87857 20.9951C6.19812 20.5109 4.66079 19.6427 3.39464 18.4628C2.12849 17.283 1.17017 15.8255 0.599503 14.212C0.028841 12.5984 -0.137646 10.8755 0.113911 9.18655C0.365469 7.49766 1.02779 5.89174 2.0457 4.50257C3.06361 3.1134 4.40765 1.98119 5.96586 1.20026C7.52407 0.419319 9.25134 0.0122586 11.0038 0.0129829V1.33105e-06ZM11.0038 19.4724C13.3903 19.4724 15.679 18.5492 17.3665 16.9059C19.054 15.2626 20.002 13.0338 20.002 10.7098C20.002 8.38582 19.054 6.15703 17.3665 4.51373C15.679 2.87043 13.3903 1.94724 11.0038 1.94724C8.61733 1.94724 6.3286 2.87043 4.64111 4.51373C2.95362 6.15703 2.0056 8.38582 2.0056 10.7098C2.0056 13.0338 2.95362 15.2626 4.64111 16.9059C6.3286 18.5492 8.61733 19.4724 11.0038 19.4724Z" fill="#323A50"/>
</svg>
