<svg xmlns="http://www.w3.org/2000/svg" width="16" height="17" viewBox="0 0 16 17" fill="none">
    <path d="M13.3333 11.7959C12.7 11.7959 12.1156 12.0128 11.6578 12.3749L7.05333 9.12449C7.13043 8.71156 7.13043 8.28844 7.05333 7.87551L11.6578 4.62513C12.1156 4.98724 12.7 5.20408 13.3333 5.20408C14.8044 5.20408 16 4.0375 16 2.60204C16 1.16658 14.8044 0 13.3333 0C11.8622 0 10.6667 1.16658 10.6667 2.60204C10.6667 2.85357 10.7022 3.09426 10.7711 3.32411L6.39778 6.41403C5.74889 5.57487 4.71778 5.03061 3.55556 5.03061C1.59111 5.03061 0 6.58316 0 8.5C0 10.4168 1.59111 11.9694 3.55556 11.9694C4.71778 11.9694 5.74889 11.4251 6.39778 10.586L10.7711 13.6759C10.7022 13.9057 10.6667 14.1486 10.6667 14.398C10.6667 15.8334 11.8622 17 13.3333 17C14.8044 17 16 15.8334 16 14.398C16 12.9625 14.8044 11.7959 13.3333 11.7959ZM13.3333 1.47449C13.9711 1.47449 14.4889 1.97972 14.4889 2.60204C14.4889 3.22436 13.9711 3.72959 13.3333 3.72959C12.6956 3.72959 12.1778 3.22436 12.1778 2.60204C12.1778 1.97972 12.6956 1.47449 13.3333 1.47449ZM3.55556 10.4082C2.47778 10.4082 1.6 9.55166 1.6 8.5C1.6 7.44834 2.47778 6.59184 3.55556 6.59184C4.63333 6.59184 5.51111 7.44834 5.51111 8.5C5.51111 9.55166 4.63333 10.4082 3.55556 10.4082ZM13.3333 15.5255C12.6956 15.5255 12.1778 15.0203 12.1778 14.398C12.1778 13.7756 12.6956 13.2704 13.3333 13.2704C13.9711 13.2704 14.4889 13.7756 14.4889 14.398C14.4889 15.0203 13.9711 15.5255 13.3333 15.5255Z" fill="#33394F"/>
</svg>
