<svg xmlns="http://www.w3.org/2000/svg" width="13" height="15" viewBox="0 0 13 15" fill="none">
    <path d="M12.3027 5.28868L10.7191 14.5266C10.6943 14.6591 10.6228 14.779 10.517 14.8654C10.4113 14.9519 10.2779 14.9995 10.14 15H2.86C2.7221 14.9995 2.58873 14.9519 2.48297 14.8654C2.37721 14.779 2.30573 14.6591 2.28091 14.5266L0.697273 5.28868C0.683631 5.20647 0.688357 5.12234 0.711126 5.04207C0.733895 4.96181 0.774167 4.88731 0.82918 4.82369C0.884192 4.76006 0.952642 4.70882 1.02983 4.67348C1.10702 4.63814 1.19112 4.61953 1.27636 4.61894H11.7118C11.7981 4.61785 11.8835 4.63522 11.9621 4.66983C12.0408 4.70444 12.1107 4.75545 12.167 4.81927C12.2233 4.8831 12.2646 4.95819 12.2881 5.03928C12.3115 5.12038 12.3165 5.2055 12.3027 5.28868ZM13 2.88684C13 3.03996 12.9377 3.18682 12.8269 3.2951C12.7161 3.40337 12.5658 3.4642 12.4091 3.4642H0.590909C0.43419 3.4642 0.28389 3.40337 0.173073 3.2951C0.0622564 3.18682 0 3.03996 0 2.88684C0 2.73371 0.0622564 2.58685 0.173073 2.47858C0.28389 2.3703 0.43419 2.30947 0.590909 2.30947H3.54545V0.577367C3.54545 0.42424 3.60771 0.277384 3.71853 0.169107C3.82934 0.0608296 3.97964 0 4.13636 0H8.86364C9.02036 0 9.17066 0.0608296 9.28147 0.169107C9.39229 0.277384 9.45455 0.42424 9.45455 0.577367V2.30947H12.4091C12.5658 2.30947 12.7161 2.3703 12.8269 2.47858C12.9377 2.58685 13 2.73371 13 2.88684ZM8.27273 2.30947V1.15473H4.72727V2.30947H8.27273Z" fill="#818492"/>
</svg>
